<svg width="862" height="192" viewBox="0 0 862 192" fill="none" xmlns="http://www.w3.org/2000/svg">
<path d="M69.2849 191.2C79.0258 191.2 89.045 189.252 92.6631 188.139V154.463C89.6017 155.298 85.7053 156.133 81.5306 156.133C68.45 156.133 62.3271 150.01 62.3271 137.764V83.2151H92.6631V50.931H62.3271V0L24.7551 13.9156V50.931H0.263672V83.2151H23.3635V146.948C23.3635 178.676 44.5152 191.2 69.2849 191.2Z" fill="#334155"/>
<path d="M118.255 187.025H157.218V108.263C160.558 95.1825 174.195 85.4416 188.946 85.4416C194.234 85.4416 198.687 85.7199 203.14 86.8332V47.313C201.47 47.0346 195.904 46.478 193.12 46.478C175.865 46.478 163.341 55.6623 156.662 70.6911V50.931H118.255V187.025Z" fill="#334155"/>
<path d="M284.983 191.2C312.257 191.2 328.399 183.964 340.923 175.893V142.217C323.111 153.906 307.526 158.916 289.158 158.916C272.181 158.916 254.925 148.618 254.09 129.971H350.386C350.664 127.745 350.943 121.9 350.943 118.561C350.943 76.5357 326.451 46.478 283.313 46.478C244.349 46.478 213.457 75.1441 213.457 118.004C213.457 165.039 245.741 191.2 284.983 191.2ZM254.925 103.81C255.76 91.5645 266.336 78.7622 283.313 78.7622C301.96 78.7622 310.866 91.0079 311.701 103.81H254.925Z" fill="#334155"/>
<path d="M532.878 46.478C510.335 46.478 496.697 57.8888 489.74 65.9598C481.112 53.1575 466.361 46.478 450.498 46.478C433.242 46.478 421.832 53.1575 414.317 61.7852V50.931H375.91V187.025H414.874V96.2958C420.44 87.9464 428.233 82.1019 438.53 82.1019C451.611 82.1019 459.404 91.2862 459.404 106.037V187.025H498.367V95.4608C503.934 87.6681 511.726 82.1019 521.467 82.1019C534.548 82.1019 542.619 91.2862 542.619 106.037V187.025H581.582V96.2958C581.582 64.0116 558.483 46.478 532.878 46.478Z" fill="#334155"/>
<path d="M677.776 191.2C721.749 191.2 752.085 159.472 752.085 118.561C752.085 77.9272 721.749 46.478 677.776 46.478C633.803 46.478 603.745 77.9272 603.745 118.561C603.745 159.472 633.803 191.2 677.776 191.2ZM677.776 154.463C659.129 154.463 644.1 141.104 644.1 118.561C644.1 96.5741 659.129 82.9368 677.776 82.9368C696.701 82.9368 711.73 96.5741 711.73 118.561C711.73 141.104 696.701 154.463 677.776 154.463Z" fill="#334155"/>
<path d="M777.07 187.025H816.034V108.263C819.373 95.1825 833.011 85.4416 847.761 85.4416C853.049 85.4416 857.502 85.7199 861.955 86.8332V47.313C860.285 47.0346 854.719 46.478 851.936 46.478C834.681 46.478 822.157 55.6623 815.477 70.6911V50.931H777.07V187.025Z" fill="#334155"/>
</svg>
