<svg width="472" height="84" viewBox="0 0 472 84" fill="none" xmlns="http://www.w3.org/2000/svg">
<path d="M27.405 80.575C31.08 80.575 34.86 79.84 36.225 79.42V66.715C35.07 67.03 33.6 67.345 32.025 67.345C27.09 67.345 24.78 65.035 24.78 60.415V39.835H36.225V27.655H24.78V8.43999L10.605 13.69V27.655H1.365V39.835H10.08V63.88C10.08 75.85 18.06 80.575 27.405 80.575ZM45.8801 79H60.5801V49.285C61.8401 44.35 66.9851 40.675 72.5501 40.675C74.5451 40.675 76.2251 40.78 77.9051 41.2V26.29C77.2751 26.185 75.1751 25.975 74.1251 25.975C67.6151 25.975 62.8901 29.44 60.3701 35.11V27.655H45.8801V79ZM108.782 80.575C119.072 80.575 125.162 77.845 129.887 74.8V62.095C123.167 66.505 117.287 68.395 110.357 68.395C103.952 68.395 97.4425 64.51 97.1275 57.475H133.457C133.562 56.635 133.667 54.43 133.667 53.17C133.667 37.315 124.427 25.975 108.152 25.975C93.4525 25.975 81.7975 36.79 81.7975 52.96C81.7975 70.705 93.9775 80.575 108.782 80.575ZM97.4425 47.605C97.7575 42.985 101.747 38.155 108.152 38.155C115.187 38.155 118.547 42.775 118.862 47.605H97.4425ZM202.307 25.975C193.802 25.975 188.657 30.28 186.032 33.325C182.777 28.495 177.212 25.975 171.227 25.975C164.717 25.975 160.412 28.495 157.577 31.75V27.655H143.087V79H157.787V44.77C159.887 41.62 162.827 39.415 166.712 39.415C171.647 39.415 174.587 42.88 174.587 48.445V79H189.287V44.77V44.455C191.387 41.515 194.327 39.415 198.002 39.415C202.937 39.415 205.982 42.88 205.982 48.445V79H220.682V44.77C220.682 32.59 211.967 25.975 202.307 25.975ZM256.974 80.575C273.564 80.575 285.009 68.605 285.009 53.17C285.009 37.84 273.564 25.975 256.974 25.975C240.384 25.975 229.044 37.84 229.044 53.17C229.044 68.605 240.384 80.575 256.974 80.575ZM256.974 66.715C249.939 66.715 244.269 61.675 244.269 53.17C244.269 44.875 249.939 39.73 256.974 39.73C264.114 39.73 269.784 44.875 269.784 53.17C269.784 61.675 264.114 66.715 256.974 66.715ZM294.435 79H309.135V49.285C310.395 44.35 315.54 40.675 321.105 40.675C323.1 40.675 324.78 40.78 326.46 41.2V26.29C325.83 26.185 323.73 25.975 322.68 25.975C316.17 25.975 311.445 29.44 308.925 35.11V27.655H294.435V79Z" fill="#334155"/>
<rect x="350" y="26" width="122" height="53" rx="9.66337" fill="#3B82F6"/>
<path d="M368.24 65H378.785C383.93 65 386.866 62.1735 386.866 57.6438C386.866 54.9622 385.452 52.7154 382.916 51.8095C384.619 50.976 385.96 49.1279 385.96 46.4463C385.96 42.6414 383.061 39.6337 378.277 39.6337H368.24V65ZM373.494 49.9251V44.2721H377.19C379.111 44.2721 380.379 45.2867 380.379 47.0261C380.379 48.838 379.111 49.9251 377.19 49.9251H373.494ZM373.494 60.2529V54.1287H377.734C379.908 54.1287 381.213 55.2883 381.213 57.1727C381.213 59.1295 379.763 60.2529 377.734 60.2529H373.494ZM390.57 65H407.529V60.0717H395.824V54.6723H406.405V49.8889H395.824V44.417H407.529V39.6337H390.57V65ZM418.042 65L423.514 65.0362V44.6345L431.631 44.5982V39.6337H409.961V44.5982H418.042V65ZM450.377 65H456.066L446.246 39.6337H439.759L429.939 65H435.556L437.476 59.818H448.42L450.377 65ZM439.288 54.9622L442.912 45.2143L446.572 54.9622H439.288Z" fill="white"/>
</svg>
